<svg xmlns="http://www.w3.org/2000/svg" xmlns:xlink="http://www.w3.org/1999/xlink" width="200" zoomAndPan="magnify" viewBox="0 0 150 149.999998" height="200" preserveAspectRatio="xMidYMid meet" version="1.0"><defs><g/><clipPath id="bd5a39e46b"><path d="M 21.0625 2.109375 L 129 2.109375 L 129 147.609375 L 21.0625 147.609375 Z M 21.0625 2.109375 " clip-rule="nonzero"/></clipPath><clipPath id="3794a5593d"><path d="M 23 16 L 88 16 L 88 147.609375 L 23 147.609375 Z M 23 16 " clip-rule="nonzero"/></clipPath></defs><g clip-path="url(#bd5a39e46b)"><path fill="#ffffff" d="M 77.679688 89.132812 C 77.757812 89.113281 77.835938 89.09375 77.914062 89.082031 C 97.179688 84.90625 111.910156 67.726562 112.929688 48.222656 C 113.574219 36.027344 109.367188 24.492188 101.09375 15.746094 C 92.832031 7.011719 81.5625 2.183594 69.367188 2.152344 C 53.832031 2.105469 38.039062 2.109375 22.765625 2.109375 C 22.210938 2.109375 21.65625 2.109375 21.101562 2.109375 L 21.101562 10.929688 C 26.460938 10.9375 31.816406 10.941406 37.179688 10.941406 C 47.636719 10.941406 58.097656 10.941406 68.558594 10.960938 C 71.3125 10.964844 73.703125 11.175781 75.863281 11.613281 C 92.917969 15.03125 104.546875 29.519531 104.144531 46.839844 C 103.761719 63.261719 90.589844 78.101562 74.160156 80.625 C 71.785156 80.988281 69.316406 81.101562 66.703125 81.222656 C 65.40625 81.28125 64.066406 81.339844 62.660156 81.4375 L 59.402344 81.65625 L 117.140625 147.886719 L 128.890625 147.886719 Z M 77.679688 89.132812 " fill-opacity="1" fill-rule="nonzero"/></g><g clip-path="url(#3794a5593d)"><path fill="#ffffff" d="M 87.242188 22.238281 L 80.902344 16.527344 L 79.820312 17.515625 C 79.660156 17.664062 79.515625 17.78125 79.394531 17.890625 C 79.128906 18.121094 78.890625 18.324219 78.664062 18.585938 C 74.316406 23.6875 69.972656 28.785156 65.628906 33.882812 C 52.152344 49.699219 38.21875 66.046875 24.472656 82.089844 C 22.023438 84.949219 23.769531 86.988281 24.707031 88.085938 C 33.867188 98.777344 43.148438 109.667969 52.128906 120.199219 C 56.140625 124.902344 60.148438 129.605469 64.15625 134.304688 C 67.59375 138.335938 71.046875 142.355469 74.523438 146.414062 L 75.796875 147.894531 L 87.417969 147.894531 L 33.734375 84.949219 Z M 87.242188 22.238281 " fill-opacity="1" fill-rule="nonzero"/></g><g fill="#ffffff" fill-opacity="1"><g transform="translate(72.349999, 69.749998)"><g><path d="M 1.4375 0 L 1.4375 -11.421875 L 3.859375 -11.421875 L 3.859375 0 Z M 1.4375 0 "/></g></g></g></svg>